<svg width="104" height="104" viewBox="0 0 104 104" fill="none" xmlns="http://www.w3.org/2000/svg">
    <path
        d="M25.0801 52.3754L25.0801 15.257C25.0801 5.76357 34.8467 -0.731982 43.8342 2.78399L97.2696 23.6883L80.7424 30.2559L41.0501 15.5802C38.8126 14.7529 36.4223 16.3754 36.4223 18.7215L36.4223 47.8682L25.0801 52.3754Z"
        fill="#F51592" />
    <path
        d="M103.02 33.8853C103.02 36.621 101.329 39.0831 98.7439 40.1091L78.9178 47.9795V48.0096L21.2155 72.3673L18.1735 73.5187L62.9477 90.0734C65.1853 90.9007 67.5756 89.2782 67.5756 86.9321V57.8676L78.9178 53.3603V90.4156C78.9178 99.9039 69.1609 106.399 60.175 102.893L5.29363 81.4786C2.689 80.4623 0.979494 77.9902 0.979494 75.2399L0.979492 71.7683C0.979492 69.0326 2.6712 66.5705 5.25586 65.5445L102.073 27.0806C102.681 28.0917 103.02 29.2623 103.02 30.4882V33.8853Z"
        fill="url(#gradiant)" />
    <defs>
        <radialGradient id="gradiant" cx="0" cy="0" r="1"
            gradientUnits="userSpaceOnUse"
            gradientTransform="translate(140.416 163.139) rotate(-134.657) scale(176.502 152.42)">
            <stop offset="0.580974" stop-color="#7E49DD" />
            <stop offset="1" stop-color="#4183D7" />
        </radialGradient>
    </defs>
</svg>
