<svg fill="none" height="396" viewBox="0 0 841 396" width="841" xmlns="http://www.w3.org/2000/svg">
    <rect fill="#080632" height="396" rx="48" width="840.948" />
    <path
        d="M156.845 198.574L156.845 141.827C156.845 127.314 171.776 117.383 185.516 122.759L267.208 154.717L241.941 164.758L181.26 142.322C177.839 141.057 174.185 143.537 174.185 147.124L174.185 191.683L156.845 198.574Z"
        fill="#F51592" />
    <path
        d="M276 170.307C276 174.489 273.414 178.253 269.462 179.822L239.152 191.854V191.9L150.937 229.138L146.286 230.898L214.737 256.207C218.158 257.472 221.812 254.991 221.812 251.405V206.971L239.152 200.08V256.73C239.152 271.236 224.236 281.166 210.498 275.806L126.595 243.067C122.613 241.514 120 237.734 120 233.53L120 228.222C120 224.04 122.586 220.276 126.538 218.707L274.552 159.904C275.481 161.449 276 163.239 276 165.113V170.307Z"
        fill="url(#paint0_radial_1035_2393)" />
    <path
        d="M667.265 158.855V201.378L705.442 178.87C705.888 178.607 706.464 178.708 706.756 179.136C707.674 180.481 708.3 182.039 708.551 183.719L709.373 189.233C710.034 193.673 707.936 198.071 704.068 200.35L669.304 221.083C668.04 221.838 667.265 223.201 667.265 224.674V249.946C667.265 252.147 665.482 253.93 663.281 253.93H650.801C648.601 253.93 646.817 252.147 646.817 249.946V158.855C646.817 156.655 648.601 154.871 650.801 154.871H663.281C665.482 154.871 667.265 156.655 667.265 158.855Z"
        fill="white" />
    <path
        d="M318.044 229.179C317.688 226.956 319.521 225.079 321.773 225.079H334.206C336.167 225.079 337.775 226.544 338.548 228.347C341.326 234.832 349.052 238.594 358.972 238.594C370.246 238.594 377.949 233.132 377.949 225.709C377.949 219.056 373.187 215.275 360.512 212.684L349.868 210.583C329.7 206.591 319.826 196.927 319.826 181.871C319.826 163.384 335.932 151.129 358.411 151.129C380.25 151.129 394.592 161.683 396.889 177.963C397.2 180.171 395.377 182.011 393.147 182.011H380.922C378.847 182.011 377.187 180.383 376.505 178.423C374.265 171.979 367.483 168.216 358.411 168.216C347.977 168.216 340.974 173.118 340.974 180.541C340.974 186.773 345.876 190.625 357.781 193.006L368.495 195.177C389.854 199.448 399.168 208.062 399.168 223.398C399.168 243.146 383.692 255.681 358.411 255.681C336.103 255.681 320.701 245.772 318.044 229.179Z"
        fill="white" />
    <path clip-rule="evenodd" d="M436.767 191.806C440.853 183.07 449.154 177.669 459.947 177.669C478.995 177.669 490.689 192.165 490.689 216.395C490.689 240.555 479.065 255.121 460.297 255.121C449.436 255.121 441.067 249.86 437.048 241.473C437.005 241.383 436.914 241.325 436.814 241.325C436.672 241.325 436.557 241.44 436.557 241.582V270.473C436.557 272.673 434.774 274.456 432.574 274.456H420.093C417.893 274.456 416.109 272.673 416.109 270.473V182.844C416.109 180.644 417.893 178.86 420.093 178.86H432.293C434.494 178.86 436.277 180.644 436.277 182.844V191.699C436.277 191.841 436.392 191.955 436.533 191.955C436.633 191.955 436.724 191.897 436.767 191.806ZM436.487 216.395C436.487 229.981 443.07 238.664 453.084 238.664C463.308 238.664 469.751 230.051 469.751 216.395C469.751 202.81 463.308 194.056 453.084 194.056C443.07 194.056 436.487 202.95 436.487 216.395Z"
        fill="white"
        fill-rule="evenodd" />
    <path clip-rule="evenodd" d="M529.269 255.121C538.598 255.121 547.858 250.484 552.094 242.586C552.14 242.5 552.229 242.446 552.327 242.446C552.471 242.446 552.589 242.563 552.589 242.708V249.946C552.589 252.147 554.372 253.93 556.573 253.93H568.353C570.553 253.93 572.337 252.147 572.337 249.946V202.319C572.337 187.193 559.802 177.249 540.544 177.249C522.611 177.249 510.771 185.391 508.051 197.67C507.557 199.899 509.408 201.829 511.691 201.829H522.848C524.78 201.829 526.355 200.387 527.26 198.68C529.256 194.912 533.557 192.515 539.633 192.515C547.337 192.515 552.239 196.577 552.239 203.58V204.797C552.239 206.906 550.595 208.649 548.49 208.774L533.331 209.672C514.633 210.793 504.129 218.706 504.129 232.362C504.129 245.877 514.983 255.121 529.269 255.121ZM535.992 240.345C529.059 240.345 524.437 236.843 524.437 231.241C524.437 225.919 528.779 222.488 536.412 221.927L550.123 221.078C551.27 221.007 552.239 221.918 552.239 223.066V226.409C552.239 234.532 544.886 240.345 535.992 240.345Z"
        fill="white"
        fill-rule="evenodd" />
    <path
        d="M595.293 253.93C593.092 253.93 591.309 252.147 591.309 249.946V182.844C591.309 180.644 593.092 178.86 595.293 178.86H607.073C609.273 178.86 611.057 180.644 611.057 182.844V192.137C611.057 192.268 611.164 192.375 611.296 192.375C611.403 192.375 611.497 192.303 611.527 192.2C614.217 182.788 620.565 177.669 629.334 177.669C630.38 177.669 631.358 177.737 632.245 177.848C633.991 178.068 635.146 179.645 635.146 181.404V190.461C635.146 193.304 632.144 195.461 629.306 195.293C628.787 195.263 628.258 195.247 627.723 195.247C617.639 195.247 611.757 201.409 611.757 211.983V249.946C611.757 252.147 609.973 253.93 607.773 253.93H595.293Z"
        fill="white" />
    <path
        d="M677.123 229.839C676.423 228.845 676.715 227.466 677.758 226.842L692.459 218.043L713.22 247.66C715.071 250.3 713.182 253.93 709.958 253.93H696.153C694.857 253.93 693.642 253.3 692.896 252.24L677.123 229.839Z"
        fill="white" />
    <defs>
        <radialGradient cx="0" cy="0" gradientTransform="translate(333.171 367.91) rotate(-134.657) scale(269.837 233.019)" gradientUnits="userSpaceOnUse"
            id="paint0_radial_1035_2393"
            r="1">
            <stop offset="0.580974" stop-color="#7E49DD" />
            <stop offset="1" stop-color="#4183D7" />
        </radialGradient>
    </defs>
</svg>
